<?xml version="1.0" encoding="iso-8859-1"?>
<!-- Generator: Adobe Illustrator 19.0.0, SVG Export Plug-In . SVG Version: 6.00 Build 0)  -->
<svg version="1.1" id="Layer_1" xmlns="http://www.w3.org/2000/svg" xmlns:xlink="http://www.w3.org/1999/xlink" x="0px" y="0px"
	 viewBox="0 0 496.8 496.8" style="enable-background:new 0 0 496.8 496.8;" xml:space="preserve">
<circle style="fill:#D81665;" cx="248.4" cy="212.8" r="208"/>
<polygon style="fill:#00233F;" points="169.2,240.8 186,148.8 169.2,56.8 328.4,56.8 311.6,148.8 328.4,240.8 "/>
<polygon style="fill:#0C537A;" points="221.2,4.8 154.8,28.8 140.4,80.8 246,80.8 "/>
<polygon style="fill:#00233F;" points="221.2,4.8 166.8,36 140.4,80.8 246,80.8 "/>
<polygon style="fill:#D6D6D6;" points="222.8,0 206,7.2 218,36.8 248.4,80.8 248.4,17.6 "/>
<polygon style="fill:#FFFFFF;" points="222.8,0 248.4,17.6 216.4,34.4 "/>
<polygon style="fill:#0C537A;" points="275.6,4.8 342,28.8 356.4,80.8 250.8,80.8 "/>
<polygon style="fill:#00233F;" points="275.6,4.8 330,36 356.4,80.8 250.8,80.8 "/>
<polygon style="fill:#D6D6D6;" points="274,0 290.8,7.2 278.8,36.8 248.4,80.8 248.4,17.6 "/>
<polygon style="fill:#FFFFFF;" points="274,0 248.4,17.6 280.4,34.4 "/>
<polygon style="fill:#D6D6D6;" points="270,38.4 248.4,86.4 226.8,38.4 248.4,16.8 "/>
<polygon style="fill:#EF4391;" points="248.4,29.6 248.4,19.2 216.4,7.2 216.4,40 "/>
<polygon style="fill:#D81665;" points="248.4,29.6 248.4,19.2 222,20.8 216.4,40 "/>
<polygon style="fill:#BC085A;" points="248.4,29.6 248.4,19.2 227.6,29.6 216.4,40 "/>
<polygon style="fill:#EF4391;" points="248.4,29.6 248.4,19.2 280.4,7.2 280.4,40 "/>
<polygon style="fill:#D81665;" points="248.4,29.6 248.4,19.2 274.8,20.8 280.4,40 "/>
<polygon style="fill:#BC085A;" points="248.4,29.6 248.4,19.2 269.2,29.6 280.4,40 "/>
<path style="fill:#D81665;" d="M252.4,28.8c0,2.4-1.6,4-4,4l0,0c-2.4,0-4-1.6-4-4v-8c0-2.4,1.6-4,4-4l0,0c2.4,0,4,1.6,4,4V28.8z"/>
<path style="fill:#BC085A;" d="M252.4,20v8c0,2.4-1.6,4-4,4l0,0c-2.4,0-4-1.6-4-4v-8"/>
<circle style="fill:#00233F;" cx="248.4" cy="51.2" r="4"/>
<g>
	<circle style="fill:#D6D6D6;" cx="248.4" cy="101.6" r="4"/>
	<circle style="fill:#D6D6D6;" cx="248.4" cy="152" r="4"/>
	<circle style="fill:#D6D6D6;" cx="248.4" cy="202.4" r="4"/>
</g>
<g>
	<polygon style="fill:#00233F;" points="132.4,224.8 102,222.4 141.2,80 186,71.2 	"/>
	<polygon style="fill:#00233F;" points="364.4,224.8 394.8,222.4 355.6,80 310.8,71.2 	"/>
	<polygon style="fill:#00233F;" points="240.4,496.8 200.4,496.8 182.8,240.8 240.4,240.8 	"/>
	<polygon style="fill:#00233F;" points="256.4,496.8 297.2,496.8 314.8,240.8 256.4,240.8 	"/>
	<rect x="208.4" y="224.8" style="fill:#00233F;" width="80" height="72"/>
</g>
<g>
</g>
<g>
</g>
<g>
</g>
<g>
</g>
<g>
</g>
<g>
</g>
<g>
</g>
<g>
</g>
<g>
</g>
<g>
</g>
<g>
</g>
<g>
</g>
<g>
</g>
<g>
</g>
<g>
</g>
</svg>
